<?xml version="1.0" encoding="UTF-8"?>
<!DOCTYPE svg PUBLIC "-//W3C//DTD SVG 1.1//EN" "http://www.w3.org/Graphics/SVG/1.1/DTD/svg11.dtd">
<!-- Creator: CorelDRAW -->
<svg xmlns="http://www.w3.org/2000/svg" xml:space="preserve" width="94.0333mm" height="94.0333mm" version="1.1" style="shape-rendering:geometricPrecision; text-rendering:geometricPrecision; image-rendering:optimizeQuality; fill-rule:evenodd; clip-rule:evenodd"
viewBox="0 0 1116.71 1116.71"
 xmlns:xlink="http://www.w3.org/1999/xlink"
 xmlns:xodm="http://www.corel.com/coreldraw/odm/2003">
 <defs>
  <style type="text/css">
   <![CDATA[
    .fil0 {fill:black}
   ]]>
  </style>
 </defs>
 <g id="Capa_x0020_1">
  <metadata id="CorelCorpID_0Corel-Layer"/>
  <path class="fil0" d="M244.45 0l627.8 0c134.45,0 244.45,110 244.45,244.45l0 627.8c0,134.45 -110,244.45 -244.45,244.45l-94.91 0 0 -429.19 144.96 0 23.88 -175.02 -168.84 0 0 -89.57 0 -40.21c1.56,-32.1 22.22,-50.86 59.81,-57.82l109.87 0 0 -157.11c-168.04,-8.11 -311.91,-29.45 -350.66,186.01l0 69.13 0 89.57 -146.33 0 0 175.02 146.33 0 0 429.19 -351.91 0c-134.45,0 -244.45,-110 -244.45,-244.45l0 -627.8c0,-134.45 110,-244.45 244.45,-244.45z"/>
 </g>
</svg>
