<?xml version="1.0" encoding="UTF-8"?>
<!DOCTYPE svg PUBLIC "-//W3C//DTD SVG 1.1//EN" "http://www.w3.org/Graphics/SVG/1.1/DTD/svg11.dtd">
<!-- Creator: CorelDRAW -->
<svg xmlns="http://www.w3.org/2000/svg" xml:space="preserve" width="94.0333mm" height="94.0333mm" version="1.1" style="shape-rendering:geometricPrecision; text-rendering:geometricPrecision; image-rendering:optimizeQuality; fill-rule:evenodd; clip-rule:evenodd"
viewBox="0 0 1511.52 1511.52"
 xmlns:xlink="http://www.w3.org/1999/xlink"
 xmlns:xodm="http://www.corel.com/coreldraw/odm/2003">
 <defs>
  <style type="text/css">
   <![CDATA[
    .fil0 {fill:black}
   ]]>
  </style>
 </defs>
 <g id="Capa_x0020_1">
  <metadata id="CorelCorpID_0Corel-Layer"/>
  <path class="fil0" d="M330.88 0l849.77 0c181.99,0 330.88,148.9 330.88,330.88l0 849.77c0,181.99 -148.89,330.88 -330.88,330.88l-849.77 0c-181.98,0 -330.88,-148.89 -330.88,-330.88l0 -849.77c0,-181.98 148.9,-330.88 330.88,-330.88zm889.81 128.76c57.88,0 104.79,46.92 104.79,104.79 0,57.87 -46.92,104.79 -104.79,104.79 -57.87,0 -104.79,-46.92 -104.79,-104.79 0,-57.88 46.92,-104.79 104.79,-104.79zm-464.93 199.85c244.84,0 443.33,198.48 443.33,443.33 0,244.84 -198.48,443.33 -443.33,443.33 -244.84,0 -443.33,-198.48 -443.33,-443.33 0,-244.84 198.48,-443.33 443.33,-443.33zm0 159.9c156.53,0 283.42,126.89 283.42,283.42 0,156.53 -126.89,283.42 -283.42,283.42 -156.53,0 -283.42,-126.89 -283.42,-283.42 0,-156.53 126.89,-283.42 283.42,-283.42z"/>
 </g>
</svg>
