<?xml version="1.0" encoding="UTF-8"?>
<!DOCTYPE svg PUBLIC "-//W3C//DTD SVG 1.1//EN" "http://www.w3.org/Graphics/SVG/1.1/DTD/svg11.dtd">
<!-- Creator: CorelDRAW -->
<svg xmlns="http://www.w3.org/2000/svg" xml:space="preserve" width="94.0333mm" height="94.0333mm" version="1.1" style="shape-rendering:geometricPrecision; text-rendering:geometricPrecision; image-rendering:optimizeQuality; fill-rule:evenodd; clip-rule:evenodd"
viewBox="0 0 2347.23 2347.23"
 xmlns:xlink="http://www.w3.org/1999/xlink"
 xmlns:xodm="http://www.corel.com/coreldraw/odm/2003">
 <defs>
  <style type="text/css">
   <![CDATA[
    .fil0 {fill:black}
   ]]>
  </style>
 </defs>
 <g id="Capa_x0020_1">
  <metadata id="CorelCorpID_0Corel-Layer"/>
  <path class="fil0" d="M513.82 0l1319.59 0c282.6,0 513.82,231.22 513.82,513.82l0 1319.59c0,282.6 -231.22,513.82 -513.82,513.82l-1319.59 0c-282.6,0 -513.82,-231.22 -513.82,-513.82l0 -1319.59c0,-282.6 231.22,-513.82 513.82,-513.82zm-257.47 1747.93c406.88,261.22 856.39,200.68 1173.86,-6.5 126.41,-82.5 220.92,-190.44 300.22,-307.22 106.66,-177.67 168.51,-375.27 169.36,-635.83 74.46,-56.42 140.97,-119.66 191.08,-196.95 -75.17,34.64 -145.91,56.01 -210.65,59.35 87.37,-59.55 136.54,-129.14 157.82,-206.08 -78.91,44.54 -157.83,77.41 -236.74,90.65 -259.58,-277.9 -711.68,-31.72 -643.36,341.08 -302,-6.98 -560.17,-141.82 -778.69,-392.27 -85.22,199.59 -70.03,373.44 116.07,503.47 -40.77,0.39 -90.94,-9.07 -168.26,-46.96 12.88,179.59 94.5,325.68 298.69,373.04 -43.5,18.24 -99.11,20.89 -166.95,7.83 53.86,145.08 156.55,246.23 349.55,266.08 -162.77,110.76 -340.52,178.73 -552,150.32z"/>
 </g>
</svg>
