<?xml version="1.0" encoding="UTF-8"?>
<!DOCTYPE svg PUBLIC "-//W3C//DTD SVG 1.1//EN" "http://www.w3.org/Graphics/SVG/1.1/DTD/svg11.dtd">
<!-- Creator: CorelDRAW -->
<svg xmlns="http://www.w3.org/2000/svg" xml:space="preserve" width="94.033mm" height="94.057mm" version="1.1" style="shape-rendering:geometricPrecision; text-rendering:geometricPrecision; image-rendering:optimizeQuality; fill-rule:evenodd; clip-rule:evenodd"
viewBox="0 0 5303.13 5304.48"
 xmlns:xlink="http://www.w3.org/1999/xlink"
 xmlns:xodm="http://www.corel.com/coreldraw/odm/2003">
 <defs>
  <style type="text/css">
   <![CDATA[
    .fil0 {fill:black}
   ]]>
  </style>
 </defs>
 <g id="Capa_x0020_1">
  <metadata id="CorelCorpID_0Corel-Layer"/>
  <path class="fil0" d="M2651.56 0c1464.42,0 2651.56,1187.14 2651.56,2651.56 0,1964.92 -2057.15,3222.27 -3792.04,2394.41l-1346.53 246.14 166.88 -1355.88c-211.17,-380.56 -331.43,-818.58 -331.43,-1284.67 0,-1464.42 1187.15,-2651.56 2651.56,-2651.56zm-645.75 2354.39l254.96 -322.95 -271.96 -691.22c-79.1,-21.07 -176.81,-23.32 -286.12,-14.17 -425.94,344.66 -447.57,750.73 -178.51,1201.14 340.89,637.35 780.88,1043.48 1303.09,1257.8 337.36,158.82 595.32,181.9 792.45,118.12 285.59,-92.39 424.76,-290.29 357.69,-582.72l-634.57 -351.27 -339.94 339.95c-418.37,-139.04 -760.03,-437.92 -997.1,-954.68z"/>
 </g>
</svg>
